<mxfile host="65bd71144e">
    <diagram id="A4aI3ApfHIfUCrkV9ix3" name="第 1 页">
        <mxGraphModel dx="966" dy="619" grid="1" gridSize="10" guides="1" tooltips="1" connect="1" arrows="1" fold="1" page="1" pageScale="1" pageWidth="850" pageHeight="1100" math="0" shadow="0">
            <root>
                <mxCell id="0"/>
                <mxCell id="1" parent="0"/>
                <mxCell id="2" value="" style="shape=image;verticalLabelPosition=bottom;labelBackgroundColor=default;verticalAlign=top;aspect=fixed;imageAspect=0;image=data:image/png,iVBORw0KGgoAAAANSUhEUgAAAK0AAACfCAYAAACLHVnlAAASDElEQVR4nO2dbVBUV5rHf7OZiolAgwhoooYXW5PIOJveKXwhX6CREqxoGTUS1/ELBagYLZMyTbEQLBlZS5JKUiEhCpYfhpgMjmMsZwtwFfCLqKGSzsbgbrQViJqgoAPdEkNqU7sfupt+x9vQdHPl+VX54Z57+tzT+O9z//ec89znN88888z/IQgq4p9C3QFB8BcRraA6fhvqDghBImOQS4a7aOzHA9PZuz6M2lD2aZSoX7RPl5Oct4jB/8ii66tQd2aiM5W2yhg2NIe6H2ND7IGgOkS0gurw2x5o/tjEgiT70X06D63j9g/ONfJJKFvLTHzUebqc5LwF9B36CNYVkRhlK7/+Ny584uqwpmQdQ7co3KnE0Zb7uYiXmpj5kv3oGpfLt2H265vlE1tdyuwIR8mgcS9X3nX06fE3LpGs/ZaOwhvE1eUQ66WekjrC2PiN8nnadGbsKCIxylkQ6cz4Yzr9n5QxBMP+ki/209HUCjjE1WP3nLY6EeAo+5ePWPLSXMcx9rIZXn4UbgTI00bsvcQTjQvpPWcr2NiMLktLb1M8N49Yix5/4xLJOuujzHD5xmZ0WXHcPGD9rJI6ISFjkEuGB3z7CHhaxSPtlKxtJEbdp/OQ8wjWyu1PWoePNPpFRPR/gbHJUTbU9BGd84tIXJBP11eOkcZFoF99Tc9LcwmLSwdsYo+bAdzmwUiCDSCW0oVYnAuOfElvlpapM/LB5Rnb7Cq+rjsMomVKAnDOnzojk7b7KIbF4d5PXj/OitcOKWvoEUS5aGPCof8L+n2KKJ0no8FypdU66g7TSv+VbTB/DlPA7ZxvhppO0bNoLQvKmvBuQwLMi58xf0sqYW7Fgx4V7/Czs/DObeCKhxCV1BmZs3vWc9a/j0waJvCUVy1d5bV02W1JXhOJuI3QgcIu2O56jKUGW2Els+tymBrgSwljR7Foh/ruQ9L0EUbLVh7cKyJifjpTmpxH23Si5ofDvRuKR1n3dm9/0Mptu3jdbEZASIgjDDM3Gw0PrxskxB74Rrlo7bfrHeUYP7A9eLk9iJkvX4OXFqHNSnd6ELN54WNjFZqWJ6PAcsXkWvzDDQZZxMyxiNnDc1pH2Vi82YPgIPbAN37Yg1q6yk082FGErqzJVmb1msMj6FfbuNBTTnJeEUsWFdkKRzP95D61ZsXiNCvh0q9DcwjLW8uSsrWju+a5DXQtvkRyVjexWdai3qa93HyxlGl+9lsYf/yY8hJUzSM05SUrYoLqENFOKn4i1fA93ae+p/voIPmh7s4oEXsgqA4ZaQXVIaIVVIeIVlAdikSblJTElClTxrsvgqAIGWkF1SGiFVSHiFZQHSHfmrh5cROvzAK4xl+Pb+NgqDsUFNKpyCxicQRg+YJ/P11GS6i7pCIULS4kJSVx69YthoZGt7nQF/rnjvFvC26rTqzPlrzFzpQI6DzF1tfHspBvE6/5byy7KPFjSgmhPUgnY0449y8fU49g0zaw/0QluZi4HpAGWynpuAazXmBzQNqbHIinVUwGb+7U8t37Booq7oS6M5OakHvasaCr6WIl9ZR//QfK1mltpWba9/2extPutfezqSWHREz8Xb8Mo99Xa+bt1Srf0/eIoP6RVptDWeYdavQJlOsraB/QkFL4qdN7F4RHjdCJNiKd5Ij7dNxyj0Twk4E2al7+V3oAqMV42QyRcTzlUbGIOn0C5aMaZceRH77GxFyyn0sPdU9UQ/BFG1HOiTVNnFkCHxxfR4nl4R95tKlly/EsGiOLOLOmiQNPh7o/E5/ge1pLGauPMyze9Rey2BKkF3JMSCLKOZG5iJ4LWSy7GOrOqIPQ2QNLKx0WmKmZ5LfFiOmEcw3jZP7h+on6H8QUs59NLV2UtZxBF+qu+EUeVQ0NNDQcZY8+1H2ZGKh6yivYZL9XyapEp4LE5Xx8Yjlgof39P3F4XF5UYOKeGeZqwklZkwctk/clHXZULVpjQYLHTEBPye8p91q7iDp9kdczSml83UDjmFoYDWfZ3byWhpfncr/X9PDqk4AQ2oNWvjdD+IJ1k3oJc/OcuWC5y1WfNdLYkzEXuMZ/7pF3zkCIN8y47HaarLu8Rvjew+/zMrdT+epueU2SjRCLVhD8ZxLNHgiPCiJaQXWIaAXVIaIVVIeIVlAdIlpBdYhoBdUR8mVcCSGXEHJ/kRByv9CS++cCUjSOkusnDbx9eLTtSQj5aJAQcj/Ifq+AlLun2LrawNbVBt5vt5C06i1y00bbooSQjwbxtH7Q+LrB5eUc31W0cZ0Inn1RO8KnhEATck87FoIbQu4bTUw8INsGg4X6R9pQhpCnxREDmPu6g3E1wYaEkI8aLbm5OjR0c7ZiDKOshJD7jYSQj5Ls96yzCNdPfjTGaAYJIfcXCSEfBfZYMXN7zRimu2xICLnfSAi5nzxb8tawYIvGYgvsSAi536j/QUwxAQghz93GzpSIwAlWERJC7o6qp7yCSwZvrooHQJNSwMcnnM9JCHkwUbVogxtCHqpXfUoIuTsSQh5iJITcfySEPCRICPlYkBByQXVMotkD4VFBRCuoDhGtoDoUeVpBmEjISCuoDhGtoDpEtILq8GsZN39PH6VLfho+Nl+YxcLdjwW8U4IwEn6NtLW7Y4hf/gzxy2fRNjBeXRKEkRF7IKgOEa2gOkS0guoQ0QqqQ0QrqA4RraA6RLSC6hDRCqpDRCuoDhGtoDpEtILqENEKqmNsu7wC3h1BeDgSbiOoDrEHguoQ0QqqQ0QrqA4RraA6RLSC6hDRCqpDRCuoDlW/CVwZ9kyNdgKfsdGFwu20rIt3HJua0BecGa+reVBZ/T05zCC+cErQrulBxiCXDL/SuFyDYRyanwQjrT3pXQI154OwhlddhV6/C73+ABeDHGafv6ePnLlR1IdSsADNYTRe6yfnlJnKcWh+Eoh2krDZTOkSaKscn9HNXwyFs2gb6CenOvAv4hbRPhIM0bymH/OFaWwIRS4TrzzGhoPTMc+9TXOAk2r47Wl1NV2sHM4U7y3jt7uHdKuT+Sk7in/H1X1VUFhCSqSt3FRPeYFr9pmZFd9QsFTjVOLleoVnnDKQ45Yr1x/yyf7cqT8+s5kHCHfvO2Ck4uUjuGgucyMni3WEe3y4m6P6Kg7YDzcPoSWK+hFeUfX4G5dI1jn9LS1tdBRu4Bf78cZmdFlg2vQXnqguZXaE/VL1GEvtY3cls+tyoCmeOzOc2zNh2pSBR8bY5jAa194lJ2OQ/INh1PrsnX/4MdLmk/15Fyu1Jv5u84jl+ip4xSnjd+an7GjJYdr5Ctv5BGrOQ0pxF5sKndvSkFJcQsxpWzvHTKDNca1TeIaCpdC+L2G4rXK9q4hmVnxD2bo4pzoVtJNKgd8J7vazqaWEeZcd/S4/doeU4m/IzvSrIUVkVOymZV00F/ftcvhfdJS0bGeLvZJNsJw/YKuzi6Mm8BAsUPnP/TDwmO8MORubSeADjJvibf/q6Y1IJXmvu+PUoq0rZZppr7XegTYG43OYvdG1VmxWN8nab+nYFI9x015uWrRoPdqyYvivKIj8lXl+/o1GQrFoZ1ZsJyXSTPs+5yfvWhoLHKOa7pVUogbaOFri+E31lFTRPgCJL+x3aa/zWAJ11baD6i/pBKbNyndcb1YccIcenyPdfjKXaug/X+Uk5Foaq9voR8vvCn19ztt3yybRrd9U19M+oGFeWr7vD46KZaxfGsH980coHu63ieJqI/eJR2fv97xowrHQcdaRO+zA191ANPEuP6RfmRMD5v9+wvdIdiSDK+86nzUw0A1Ez+Fxt6q9TfGOuudu8BMwdYbb36C7HuPwKF3Lz/e8t2X9ao9hpp8/BNAiKLYHT8VqYKANo08R5TMzFvovt7rdmmsxXt5OyoI5zATFt+2ekkY6W3JY2dLFSm+36sw5TMPM1bNu/1WnW7lamMq8Wfmg8Ib0VKwGIlMpaOnyPBmr9SwbC5kzeMpNjACcvkhHoY7kWVrABFfvcZ94ktO0cNpad8sL8TBg5IzL/8H/EhfJQ8gn1vmWb8fjfm5myOVPYODmJs/HusF7rmO6pTR+/KYQvTCB52ntGRZtXrO4i5RitxE6kIzaC48Tp2/zYzHMW7qFlhZ7YTdH9W6+l99yZwDifDZkF6yr74zY2402elx67oWp3AlgsknF9uDHXjNExvGUzxq19PRC1IJ0h8cFIB/dAg303hilIGppfNnmV51txukb/AMvt+/MdOZFwj9uKbf9D/9uAeT0bX4kwjqCOpO5mORI+PGW9X83o+JF5g0YqdDvGva0ejcva+UxbvSB5vmf8W5k5jElAgaNf/EcWIOB9lc0PM6NAM5qKBZtT0kjnWhZ+bnTgxf5ZNc4jo1fmyAylfUVTt7U7oX/Opa8tABaYiKhfzg/bBHfmiBq6Xanh6V8sgutvvq0H6Ox9+/mm7wPG2hoaKDhwzz/vgIAZzCaIHzpRvYN91vLvkId4QNGjjr3OzJa0QOM9WHnAfoMb2evMmSBsGhHSxF7u9HGe6sbeB76kDgK/LAHRdTpTWR/XuLk/axec3gErV5G+dVP2VFcQllLia1wdMumrlNrVvrPV/CB08OSsSCBHyu+ocBmHayXc5s6y/yUHcWpRA0XaGw+2bm9Iur0sKklx83Xepv2SmNOjO9+Z1TspmSpk3mMzKKlJQuwcHHfHopPw4GCXVyt2E1J8Tu0DPfbdbm3ueQIyz7fwvqWd1jvdo2rx3ax2VncB6dgWtNP6tohaHZfDaul94ieaVty0NXlWIu66+kwZpMcYLvuQcYg2XPBdDxw010gMWITli0177A+1nPudkvNO6zXek57sdlM95pfaKuMmSALDL/y2dFbpPYFfh+ErIhNSLTEx45QPnDP83Z7UEP9tZ9INfTxmVebEFwqq2+RGjk++yBkpJ2wLONgS5anp33IrrHJsMtLRCuoDrEHguoQ0QqqQ0QrqA4RraA6RLSC6hDRCqpjAu/ywjbfd5fh/fYD09m7fhRLgoFqR5gQTGzRAjB15KXJtA3s36lzCLLzFFtfd6vcHMbC5jDA9o7d58err0IwULc9sAm276SBrasNbF19iuuJy/n4vQmwjimMGyoWrZbcXB2azlO8fdhe1szbJ7shMZXctFD2TRhP/LMHG5vRZTnvZ3OPwlQSrWndST/NtJcrt191as/MzQML6T2ntDPxTNfA9bOuViB7oXWj6LMvasE9pGVMWCMo5l2u4CjbnaKEfW29zKOqYQ0zLlayfs9Zn63mfdjAmph2Kl/dje9agjPKR9oXP2P+8186RXTaojCrP/MIaFMSrRmmK7WFLFvbM3VrmL3Rsy2fpMURg4W71+0FWnL/XEla3ynazaCJGZ9dzlFLSyiIbbRF7dZbN4/X7H/4B4WAoVy05zZwpdR5z04tAyYzRMThsZ9ISbSmpY0Op1F66J6PtnyRFO14+CKDN08UMP2sgaKKbsVfaVS4bDK3Rk8QO0dRxIMQGPyyB97DNO541FMUrXnvhuNFEcAv7y70L7rh+j3MREPSBvbv1PLd+wYOO91fzX3jLF5v5FfR8PJc17LFBhoabD/268dZ8RpUNazBtVYKhoYG2za+axxfsZ1DweivSlEsWqtgXX2n9a0l49W1h3D2Dn07daSsiubk6j/ROHzC6nVDQu12VgxP/vr2tNtXOCQpntZ/FNqDfJ6IBrob/XhQGm+6uWsGOv/HSbBA7nMkYeG7c4F8CBMmEgpF6+lLPd4NFXRMHD7bDYnLeTPXXpbBm6viobPNxSooJ4+qBmukbVWgXywjBAzF9sBSWk9vXQ7JdTavaGmjoymO5Kzx6poCDn/EVrbx8apKPl5lLTK317C1YpSjrH4OMwLWuUMuNsBnrddWiH/1k4kdbpMxyCXDA74NYISpdRn3Sdl7oGJUvCImTFZUsGHmJ1IN39NtIIC7vJ4MaA+F4DKx7YEgeEHsgaA6RLSC6hDRCqpDRCuoDhGtoDpEtILqENEKqkMFiwtjRRI6Bx1J6DxWJKFz0JGEzoIiJKGzoC4kofOISELnACEJnUeNJHQGJKGzHUnoDEhCZ08kofNYkYTOSEJnB5LQeYxIQmdJ6OwdSeiMJHQeVyShsyR09oYkdPaJJHS2IgmdFSMJnScXktDZN7IiNiGRhM4jISPthEUSOvtCRCuoDrEHguoQ0QqqQ0QrqI7/Bwf0pFh5w2LuAAAAAElFTkSuQmCC;movable=0;resizable=0;rotatable=0;deletable=0;editable=0;connectable=0;" parent="1" vertex="1">
                    <mxGeometry x="50" y="30" width="173" height="159" as="geometry"/>
                </mxCell>
                <mxCell id="3" value="" style="shape=image;verticalLabelPosition=bottom;labelBackgroundColor=default;verticalAlign=top;aspect=fixed;imageAspect=0;image=data:image/png,iVBORw0KGgoAAAANSUhEUgAAAMwAAACvCAYAAACxQjEGAAAfpUlEQVR4nO2deVCUd5r4P8QjHozHOoRWvJBjy2Q1BQFdXCtLxBIlTqLgsakptxQFzzJTUzNCUaaUStI2mtpKLE8wjhVrVgO4msQxosFg1siA0L2Lq1bJtY4cDR1XnNJfCI6+vz/evg/ot/sFmvD9VFFFf8/n7X6f93u83+d5giRJkhAIBF7xQn8LIBAMJITCCAQKEAojEChgaH8LIOhb9pd0cenm3/ixy3XpOnJ4EItmDWV78vB+kGxg0E8jjAHtDB161csKumN/SRdfVD91VJY5I/giZzR/WAo/dkl8Uf2U/SVd/SdkgNMPCmNAO+MQEdezibUkGYtInxFF+Iwowl2UI4aMvfWk6QyKejEVZ5jbiyK92OScy+fpcp62yovGqnRyW+lFOLfkO+rJYH+t3bV16ebfPORIPGj3ppwgSOm28qNHj7rNHzNmDEFBQR5yTXyengPaAlZr3KfpdVEciLzO8RUhdvUMaGeUsLjBTsl6QK+L4uLCWnLi3Oe59tET7mT3nd6QQa/LoHatZ/mStE+87qk0Z7QCuQYPitcwnZ2d6HQ6nj9/7pIXHR3N1q1bPdY1FedQkqLluMMPGsLq4wU99DqZiMR6ao0Q69XNauBi/noWZ7uVgtq7iSSvVXKjAsYySlhEngrK0jsyGLiYH+Hhmt3xIn/IGcpU4PG9Lt7+41NlsgxSFE/JQkNDSUtLc0kPCgpym27DQMEOSJ7fzU1iLOJAfqKbMiFERZdR3+SlkMY66hIjmOI2r4ySsgiilN74TfV8Gx2JwlvcPb0hQ3fX7IaVvw7ilvYJR+5JBAeLzVJv8embmj9/Pq+++qpDWmpqKhpNN3eAsY66xEUs8FTEWET6vBwiC91NKeQncsRkLwV0e2MZ0M6IIjwH8hRM7azEZXOGVW7WWEroPRlM1y5BSqLXCl30x04+AqYFB/GX5p+USjJo8fnRkpaWxqhRowCYNWsWr7/+evcVuns6VukIn3eJ5Ovu1xyWqYhHZXPC9L/1ZCyMcUqNIaehljPRORR4s8h2wrImavTlRu8DGe7XlRE5Xen4NwzNaMcFv6B7fFaYsWPHkpqayogRI3qYinWPqTiD8FVwpsHzYlV/IkfB09PElQt4PRrpdVGE6wzmXSgdevMo4LjbZF4TuSizXNZ1F04Z/skA3o7AI4c7b8a8wIQREsZKWPnrkXw0x1M5gQW/Jq/x8fGkpqYyfvz4ngvHJZORX+I4lTAWkbWjDPiUNE/bylU60u5qyfN6N6mJeo/rg+5uum5QuD7onl6QwcsReNEs5z2e5zzofIElOaPZFPyc31V6Kiew4Pc3M3fuXC9LxrA4cxUHitfbtlI1KznesNJzFWMR6avgTMNK7xfbxjrqMpPdT5vc3HSx2bU0muVrbDCnNdQ6VJPXB1pXGYx11OFuk6IH+dSUAczT3eQevyPLG3zbm/6n/O7fbLtj4k2/F0h9il76MHyPVK16WRvtRRuk6eGR0vTwSOnDGy650ul1nvLccGOP3Na6QqndKat6T6Q0PXyDdLpVoYAqymB/reuKnHMFvYHiF5cCwWBGbMALBAoQCiMQKEAojECgAKEwAoEC+kRhxL6C4OdCnyjMX//6Vw4ePIjRaPS+UtVn5E3INf99wuUWNSQxn+WakcHnCkRRxi32h50iLOwUYWFnOdtqSVdo/yIITPpi77qjo0Pavn279O6770pXr17tuULzn6TDf7dbOmV+T/Hf+3ZLunV/kox+ytFetKHX31e0nf0P6ZNq2/+TMr+X2uwL3Njj9p2KYGDQp2sYSZI4c+YMx44d4+HDhx7LtZXX8ohwXo4DMNJ2G/iilhrrKOP7GS7nA4qm87mcPP81H2zYzNoNm1l7xNGyU7Zm9P6E8kvLlrPdfMzgpbmhpDgXmBzBG4qlFgQK/bLov3nzJjqdjoqKCrf5bY0d8PYvCcXI5fSjPHgznrF08MDPadn9ujK36aXn7pN27DAnjmWSVPUlpSpN19or2rgwcywv2SdqIoksq+e+Ol0I+ph+UZhRo0axYsWKHs+h1Xx0lPo3N/IvCc458jF5r817zT4DPJksRy57i5kATGTSRMe8kBUFvh3p118mZmswX/7mFTeyJ3NRhVPOgr6nz4+lvvrqq6SlpTF27FiPZULDx8GeG9S/uZFNaRqo+oFHjCNiko+dmg956nVRaPFgc6Mm+suE/eoxB6qW85pLpsU/Qa0fdjWC/qLPRpgXXniBlStXkp6e3q2yAIQmRDEWGDdNPq9eU9YIb0cx26owvq1hpkQmKpZb6RqG1utkmJVl+UQ3+aqaCgj6mj4ZYTo7O8nOziY0NNS7CpNS2FTyA3nJueQBEM6SByl4WbsfaePs7ntcAC7EnWKbOTXrq3esGwGCgc2gOq1sKs4gC61C10YqU6Uj/FAElccV2PgIAoZBdTQmZMUWInfM6+UXl54wv7hc9SkZW4SyDFQG1QgjEPjLoBphBAJ/EQojEChAKIxAoAChMAKBAoQ9jECggMC1hwHaznxC3oRcTqtmPyLsYQT+0WdTsrt376LT6fjuu++8Kl/zUS4nMjtUlcFUfIi6vddp7MYtrb+0n7sLX71Dc/M7GA7Ctt3XkV0Xh7D6eC2NhespOKRmYCZBXxKQ9jC0XOD67XjW3ozH/akzYQ8j6B8C0h6GSSlsOq7+2TFhDyPwl37xOj1q1ChSU1OJj4/3sQXZHsZrrLFnfLSHWeGDiBZ7mGZ39jCgnRHFgb1KQ/YJ+puAtIdRHWEPI1CJgLSH6RlhDyPoHwLTHgYDpyd8yT3zp0fJueQRzpIH/8rs3hJSFYQ9zM+dQXVaWdjDCPxlUB2NEfYwAn8ZVCOMQOAvg2qEEQj8RSiMQKAAoTACgQKEwggEChAKIxAoICAV5umTLv788TVKfnuekt+e52H9g17tr6niPn/++BpPn3RZ0560Pebq+6Wq9t1+7qzZTuYUYR/fUq1dQd8RkAozbPRw/vE385mz1cUL+QDmFqe/DsXQ/A7NzbPJ2lfDfq/P2wgChX45rewvd8/fofFKPQDhCyKIXjqTZ0+fcevzGoaOHIrpdjudD3+05jnXARgxfiQvp83i9pmbdD78EYAr710CYM7WBIYHvwiA6U47lQfLrenjIyaYWzCgnbGKOq9PHL/C9qO2///p9zV879e3IOgPBpzCNFXcp7Ojk4V5S3je9YzqgkqaKu4zMVb2VG663U5c5ly6Hv9Ezb//F2HxU+h6/BOthhbmZyUyPHg41QWV/P2vZjI+YgL//HISTRX3aSq/x2sZcxg2ejggT8kAa1/1JXe5X/4Xxkwdx5BhQ/y8ilt8v28EU1b72YygzxlQCvPs6TP+r/YHWvXNtOqbremTE6ZZ/58YM4nRocF0Pf7Joe6Lv3iR4cHDFfc5JWGqBwVRaJNjpY2zG2u4eXAB292dZhYENANKYSzYT7UsPHv6zGP5YM0vANuUa2JsGGOmjus9AT3SxtmNV9g2czbNywI/FoHAlQGlMEOGDWHEuBG0GloIi5/C6NBgr+q1/U8bo345mvitCSpMpywoXcNA9cdmZXGJSiYYKASkwjxpe0xVfoV1MV55sJyxU8fxWsYcIpKj6ezo5FqezT5/ztaEbkeM0H8Ipan8Ht9kfW1Nsx+lLPnuFv2qob/MW/sAagjbVyOnLZ1G89F56vYj6FUGxWnlu+fv0NnRySurZzNk2BC3i3yBwBsGhcI8rH9g3Rq24LhFLBB4x6BQGIFALQLyTb9AEKgIhREIFCAURiBQgFAYgUABIj6MYIBhQOu1Y0UlZb0jgOPDGDhp8ai/IZ87djmm87nm9M18cN7W5p0jm63pznm+YeCkU9/ecOfIZk72+tF9I6XvWa4118mBuufvzldkD6D94Z7KQQo+T18FhdkObnb1OjnujmvsnRhyCiEtXcXwIlIf0NHRIW3fvl169913patXr3pZSy99tv6odNtNTvtXu6X3v2p1Sb99eJP0WbX5Q+sF6f31u6VvXIspwLMM3eEgR6/TKn2z09N1+ia/K+3S6XV7pOobe6R1Re1+t+azFEUbpOl79N2k6aUPwzdIp52+i+o9karJHZjxYdRAE0PCRCMtLWAZKUrtRibbCGD/pLaNSvJolU8pBvJcYse4r4M+n7UbNpNXBaWHHJ/wd444jXj6fNa+9zUmeohRY7RLV2m00OuiCFfy1DWWURKdTOzkCLhQZqtXpSNcV2SNrGbvg9pUnEF6cZE54pt9fya78vbpBrROI5heZ+8/28SVC6BbG2MnmFOasY46yii55nhlsWu1jnL7QWDGh1EDo4Hy1hjirGO3gXI2cuLYYU588Bb3zso3650juZTP3SWnH9tFQkUuJ/Uwc5M5XgwxZB07LOdvkn8YT3WIzeTEscNkxUHSFnOdY5nMBGYuewsqDNYf7U6lgaTlS6weMG0xanaxpjnfrNAGTu60pB/mxBbIMytZX2K6donIhTGgSSSZS1yxn5blXwJtLY0NtVTureeAnYP4b3fUs7hBzjsTnUNBFVgjsZnTK1MukVVsAmLI2IvdzW7gYv56tlkOthrLKGERCxwixzVRXxZBlAZZeefVk7zXjcN5TSSRZU5y+8gAjQ/jmdJDmykFQMOaD3ZhMwKIIW2p+dvWLGHn+wBGapo1JCyz/AoaZs/VUN5ihFhPMf2MtCiugzzicZQa4xKSNAaqmt9isd1E3Bajxq49blCKgdINm20FJ/rv9z82u5ZGr0vLT/EILUAIC1Ig65qJ1ZYbOXOLNfxhyIoCjtvVfGPveutaIzbbFt5Dr4siLd++nLn+/EWQU4ZpxUpCqkqos6vfLRZ/1Q0roTiDEpcCk4lQHrjBLT+7+DBJWw6zJiA95WtIWj6RD6qMJE26AcszPfpX/qHJCJPNH+IyrSNbv2Aso6SsjG/nRZFtSUs039S+tFelIy1/PWca5IW77CDejGYl26IzuGJcSdQ3sC27px4mE5H4KWmHtFbn7vq6Moh0LiePRItViGs6QOPDqIWGSWFGyqssY7WBi+eMTJtk/8220mJUWgfutbgZ/2PjmVZhoLQSu6miMwaqqjQkxGkgNl7VEIIWlKxhTNcuwd7r1ilUY0MhGf6GHLTGxzFQsMMxjGLswghKrhVxkWTH0cXddJAQFqQk8kZKoqy8xiIO5CeSPN9J0VSMyROg8WH6jpmbMpm2IZe15+TPkct2sdP6S8WweNmX/H7nZk6C9WnffR3zemWnJT+GLPM6BmKIC9tMHpmccJKj7pytvaQth0nSyOXXbLnBWkv/lr6W9lIIaBdMXLlQRuQW+xswhsWZq7hYle1bBLW49eiYx5wZOcB6dHsTqXPITyZy1SoodDb/lqeDc04YWJ1tG3FDVmhJTp9H+A75c0ZhrUuEbP2JHEi5rk7EBFX22noF5dvKgY/7LWD/rqcvtpX7kNZCad26Qsn9JnC7dHpdpPThDQXt3dgjTffYnnIC0uLShryl6/iUlrE8kfv2iesrRkrfy+Vkq3mNpYq4tjZBwxqHPPM2OgAx9HZIT1UwB+79Fnl94340CGH18UL57X2DNyOcAe0qONOgXjweYQ8jEChAHL4UCBQgFEYgUIBQGIFAAUMfPXrU3zIIBAMGsegXCBQgpmQCgQKEwggEChAKIxAoQCiMQKCAAD8aI1Cb/SVdXLr5N37sct3rGTk8iEWzhrI9Wfib9kQ/jTD96/ljsLK/pIsvqp86KsucEXyRM5o/LIUfuyS+qH7K/pIuz40McvpBYQxoZxwi4rrd4TljEekzXO3CZWLI2FtPms7g0lJ3yF5O5DbTi50tP2x25Y5eRjxQpXOyP1cD9WSwv9bu2rp0828eciQetHtTTqD4PUxPLzrHjBlDUFCQh1wTn6fngLbAzmbBMU2vi+JApHOQIgPaGSUs9uqEqoxeF8XFhbXkuDmq676PnnAnu+/0hgx6XQa1az3Ll6R94nVPpTmjFcg1eFC8huns7ESn0/H8+XOXvOjoaLZu3eqxrqk4h5IULccdftAQVh8v6KHXyUQk1lPbg9m8DdmBwuJsd3kmau8mkrxW4YFvsxOGPFWO5veGDAYu5kd4uGZ3vMgfcoYyFXh8r4u3//hUmSyDFMVTstDQUNLS0lzSg4KC3KbbMFCwA1fzUXs8mZgSQlR0GfVNXgrZnUmqsYwSi6cRJTTV8210pDp2Fb0hg0Iz3JW/DuKW9glH7kkEB4vNUm/x6ZuaP38+r776qkNaamoqGk03d4CxjrpEZzc59vmyAVFkobsphfxEjpjsrqIb3N5YBtlHVg7kKZjaWYnL5gyr3KyxlNB7MpiuXQKLbbsXFP2xk4+AacFB/KX5px7LC2R8frSkpaUxatQoAGbNmsXrr7/efYXuno5VOsLnXSL5uvs1h3ufVJ4x/W89GQudPa3IYcJt/rGUYVkTNfpyo/eBDPfryoicrnT8G4ZmtOOCX9A9PivM2LFjSU1NZcSIET1MxbrHVJxB+Co40+B5sSo7MfD26Wn2o+XlaKTXRRGuM5h3oXTozaOA426TeU3kosxyWdddOGX4JwN4OwKPHO68GfMCE0ZIGCth5a9H8tEcT+UEFvyavMbHx5Oamsr48eN7LhyXTEZ+ieNUwlhE1o4y4FPSPG0rV+lIu6slz+vdJDtviC50d9N1g4puenpFBi9H4EWznPd4nvOg8wWW5IxmU/BzflfpqZzAgt/fzNy5c70sKbvnOVC83raVqlnJ8YaVnqsYi0hX6sTAWEddZrL7aZObm87mBTKGxgZzWoOjix95faB1lcFYRx3uNil6kE9NGcA83U3u8TuyvMG3vel/yu/+zbY7Jt70e4FK3me8RC99GL5H8s6xvZKyNtqLNkjTwyOl6eHu3PHIbnrc57nhxh65LTdueqr3RErT3XiK90JC1WSwv9b+9Ko/mBAGZAKBAsQGvECgAKEwAoEChMIIBAoQCiMQKEBEURYIFBC4UZSrPiNvQq757xMut6ghifksV69GA77F/rBThIWdIizsLGdbLekK7V8EgUlf7F0rjqLc/Cfp8N/tlk6Z31P8977dkm7dnySjn3K0F23o9fcVbWf/Q/qk2vb/pMzvpTb7AiqHXxD0LQEZRbmtvJZHhPNyHICRttvAF7XUWEcZ389wOR9Q7DaCMRZrRu9PKL+0bDnbzccMXpobSopzgckRvKFYakGgEJBRlNsaO+DtXxKKkcvpR3nwZjxj6eCBn9Oy+3VlbtNtEYwzVQ2R117RxoWZY3nJPlETSaS/Ie8E/Ua/KMyoUaNYsWJFj+fQaj46Sv2bG/mXBOcc+Zi81+a9Zp8BnkyWbRGMJzJpomNeyIoC34706y8TszWYL3/zihvZk7mowilnQd8TkFGUQ8PHwZ4b1L+5kU1pGqj6gUeMI2KSj52aD3nqdVFo8WBzoyb6y4T96jEHqpbzmkumxT9BrR92NYL+IiCjKIcmRDEWGDdNPq9eU9YIb0cx26owvq1hpkQqD9audA1D63UyzMqyfKKbfFVNBQR9TWBGUZ6UwqaSH8hLziUPgHCWPEgh8GIwO9PG2d33uABciDvFNnNq1lfvWDcCBAObQXVa2VScQRZaha6NVKZKR/ihCCqPqxeoVNB3DKqjMSErthC5Y14vv7j0hPnF5apPydgilGWgMqhGGIHAXwbVCCMQ+ItQGIFAAUJhBAIFCIURCBQg7GEEAgUErj0M0HbmE/Im5HJaNfsRYQ8j8I8+m5LdvXsXnU7Hd99951X5mo9yOZHZoaoMpuJD1O29TmM3bmn9pf3cXfjqHZqb38FwELbtvo7sujiE1cdraSxcT8EhNQMzCfqSgLSHoeUC12/Hs/ZmPO5PnQl7GEH/EJD2MExKYdNx9c+OCXsYgb/0i9fpUaNGkZqaSnx8vI8tyPYwXmONPeOjPcwKH0S02MM0u7OHAe2MKA7sVRqyT9DfBKQ9jOoIexiBSgSkPUzPCHsYQf8QmPYwGDg94UvumT89Ss4lj3CWPPhXZveWkKog7GF+7gyq08rCHkbgL4PqaIywhxH4y6AaYQQCfxlUI4xA4C9CYQQCBQiFEQgUIBRGIFCAUBiBQAEBqTBPn3Tx54+vUfLb85T89jwP6x/0an9NFff588fXePqky5r2pO0xV98vVbXv9nNnzXYypwj7+JZq7Qr6joBUmGGjh/OPv5nPnK0uXsgHMLc4/XUohuZ3aG6eTda+GvZ7fd5GECj0y2llf7l7/g6NV+oBCF8QQfTSmTx7+oxbn9cwdORQTLfb6Xz4ozXPuQ7AiPEjeTltFrfP3KTz4Y8AXHnvEgBztiYwPPhFAEx32qk8WG5NHx8xwdyCAe2MVdR5feL4FbYftf3/T7+v4Xu/vgVBfzDgFKap4j6dHZ0szFvC865nVBdU0lRxn4mxsqdy0+124jLn0vX4J2r+/b8Ii59C1+OfaDW0MD8rkeHBw6kuqOTvfzWT8RET+OeXk2iquE9T+T1ey5jDsNHDAXlKBlj7qi+5y/3yvzBm6jiGDBvi51Xc4vt9I5iy2s9mBH3OgFKYZ0+f8X+1P9Cqb6ZV32xNn5wwzfr/xJhJjA4NpuvxTw51X/zFiwwPHq64zykJUz0oiEKbHCttnN1Yw82DC9ju7jSzIKAZUApjwX6qZeHZ02ceywdrfgHYplwTY8MYM3Vc7wnokTbObrzCtpmzaV4W+LEIBK4MKIUZMmwII8aNoNXQQlj8FEaHBntVr+1/2hj1y9HEb01QYTplQekaBqo/NiuLS1QywUAhIBXmSdtjqvIrrIvxyoPljJ06jtcy5hCRHE1nRyfX8mz2+XO2JnQ7YoT+QyhN5ff4Jutra5r9KGXJd7foVw39Zd7aB1BD2L4aOW3pNJqPzlO3H0GvMihOK989f4fOjk5eWT2bIcOGuF3kCwTeMCgU5mH9A+vWsAXHLWKBwDsGhcIIBGoRkG/6BYJARSiMQKAAoTACgQKEwggEChDxYQQDDANarx0rKinrHQEcH8bASYtH/Q353LHLMZ3PNadv5oPztjbvHNlsTXfO8w0DJ5369oY7RzZzsteP7hspfc9yrblODtQ9f3e+InsA7Q/3VA5S8Hn6KijMdnCzq9fJcXdcY+/EkFMIaekqhheR+oCOjg5p+/bt0rvvvitdvXrVy1p66bP1R6XbbnLav9otvf9Vq0v67cObpM+qzR9aL0jvr98tfeNaTAGeZegOBzl6nVbpm52ertM3+V1pl06v2yNV39gjrStq97s1n6Uo2iBN36PvJk0vfRi+QTrt9F1U74lUTe7AjA+jBpoYEiYaaWkBy0hRajcy2UYA+ye1bVSSR6t8SjGQ5xI7xn0d9Pms3bCZvCooPeT4hL9zxGnE0+ez9r2vMdFDjBqjXbpKo4VeF0W4kqeusYyS6GRiJ0fAhTJbvSod4boia2Q1ex/UpuIM0ouLzBHf7Psz2ZW3TzegdRrB9Dp7/9kmrlwA3doYO8Gc0ox11FFGyTXHK4tdq3WU2w8CMz6MGhgNlLfGEGcduw2Us5ETxw5z4oO3uHdWvlnvHMmlfO4uOf3YLhIqcjmph5mbzPFiiCHr2GE5f5P8w3iqQ2wmJ44dJisOkraY6xzLZCYwc9lbUGGw/mh3Kg0kLV9i9YBpi1GzizXN+WaFNnBypyX9MCe2QJ5ZyfoS07VLRC6MAU0iyVziiv20LP8SaGtpbKilcm89B+wcxH+7o57FDXLemegcCqrAGonNnF6ZcomsYhMQQ8Ze7G52Axfz17PNcrDVWEYJi1jgEDmuifqyCKI0yMo7r57kvW4czmsiiSxzkttHBmh8GM+UHtpMKQAa1nywC5sRQAxpS83ftmYJO98HMFLTrCFhmeVX0DB7robyFiPEeorpZ6RFcR3kEY+j1BiXkKQxUNX8FovtJuK2GDV27XGDUgyUbthsKzjRf7//sdm1NHpdWn6KR2gBQliQAlnXTKy23MiZW6zhD0NWFHDcruYbe9db1xqx2bbwHnpdFGn59uXM9ecvgpwyTCtWElJVQp1d/W6x+KtuWAnFGZS4FJhMhPLADW752cWHSdpymDUB6SlfQ9LyiXxQZSRp0g1YnunRv/IPTUaYbP4Ql2kd2foFYxklZWV8Oy+KbEtaovmm9qW9Kh1p+es50yAv3GUH8WY0K9kWncEV40qivoFt2T31MJmIxE9JO6S1OnfX15VBpHM5eSRarEJc0wEaH0YtNEwKM1JeZRmrDVw8Z2TaJPtvtpUWo9I6cK/FzfgfG8+0CgOlldhNFZ0xUFWlISFOA7HxqoYQtKBkDWO6dgn2XrdOoRobCsnwN+SgNT6OgYIdjmEUYxdGUHKtiIskO44u7qaDhLAgJZE3UhJl5TUWcSA/keT5ToqmYkyeAI0P03fM3JTJtA25rD0nf45ctoud1l8qhsXLvuT3OzdzEqxP++7rmNcrOy35MWSZ1zEQQ1zYZvLI5ISTHHXnbO0lbTlMkkYuv2bLDdZa+rf0tbSXQkC7YOLKhTIit9jfgDEszlzFxaps3yKoxa1HxzzmzMgB1qPbm0idQ34ykatWQaGz+bc8HZxzwsDqbNuIG7JCS3L6PMJ3yJ8zCmtdImTrT+RAynV1IiaostfWKyjfVg583G8B+3c9fbGt3Ie0Fkrr1hVK7jeB26XT6yKlD28oaO/GHmm6x/aUE5AWlzbkLV3Hp7SM5Ynct09cXzFS+l4uJ1vNayxVxLW1CRrWOOSZt9EBiKG3Q3qqgjlw77fI6xv3o0EIq48Xym/vG7wZ4QxoV8GZBvXi8Qh7GIFAAeLwpUCgAKEwAoEChMIIBAoYyv/7z/6WQSAYMARJT1vEol8g8BIxJRMIFCAURiBQgFAYgUAB/x+0H1ZzUu8sJgAAAABJRU5ErkJggg==;movable=0;resizable=0;rotatable=0;deletable=0;editable=0;connectable=0;" parent="1" vertex="1">
                    <mxGeometry x="250" y="22" width="204" height="175" as="geometry"/>
                </mxCell>
                <mxCell id="4" value="发现打印的两次是一样的, 讲道理其实应该是不一样的&lt;br&gt;是浏览器的小处理, 为了节省内存空间&lt;br&gt;当你第一次点击 展开去查看时, 浏览器才会去计算对象目前的结构&lt;br&gt;是实时的信息, 第一次点击过后, 就不会再重新计算了" style="text;html=1;align=center;verticalAlign=middle;resizable=0;points=[];autosize=1;strokeColor=none;fillColor=none;movable=0;rotatable=0;deletable=0;editable=0;connectable=0;" parent="1" vertex="1">
                    <mxGeometry x="35" y="215" width="370" height="70" as="geometry"/>
                </mxCell>
                <mxCell id="5" value="" style="shape=image;verticalLabelPosition=bottom;labelBackgroundColor=default;verticalAlign=top;aspect=fixed;imageAspect=0;image=data:image/png,iVBORw0KGgoAAAANSUhEUgAAAQEAAACcCAYAAAB/Yx7UAAAfUElEQVR4nO2de1BUZ7bof+dmbpxEGhQFH2hAbfKQyZz0vYWo+UcaqUBqYqJBicNQNeXII2T0ZFIGimmCJWNfS2NNMiEyPJLU1GHQoIzmZE4BuUDjP6KEmmlPEs1MaJX2ER8ogW7Uce5N3ftHv3a/6AZpHvb6VVHF/vbqb6/du/faa61vf+v7l8cee+z/MR1ZWEHS1hXc/s8M+v462cpMYdJu82XxXb7aN5fNHZOtjDAV+W+TrYAgCJPLD4IVjPxZK8uXOraGufBBFte/VUrkkVD+MvPxI7OwgqSty7n5wQHIKmHJLHv7+T9x6o91bseakdGEZkWEosXVl+c+1U9amf8Tx9Y5zla8hiXYk7LrHVNVxiKVq+W2cTff/Nal08NvfEmS+ivOFF0itj6bGB9ywcgIwlTkXwKHA6nM217CklnKGyyVeT9LZfCP5dwDp2vO53s509oJuG7Waw533S6jAlfb/zjAyp8sc23jaJvnw8h4ME7hgGr3l/yw5Wn6T9gbcjrQZKjpb43ncoOt6eE3viRJEwngas/pQJMRy+Vq22eDkZkUJBwQAhDQE5iR8RpLZg1z4QPlE7aT63/sdG5FalegGvwcY6ur7V7rAS48XsKS5Xn0/dX1JHS74f96mms/WcbM2FTAbjxi5wHXuTuSARhHrGVPY1U2NPyF/gw1j87LA5RPcIv7zdx3g9uomZEAnBiNzMis2XmY4pQI3zvPH+X5X34QXEeCECSBjcDcCBj8nEG/N2Uqj0SD9ZtOm1fgpJPBb16DxxczAzz2+ede62dcW/Eyy8tb8R12jDPPHuLxwtXM9Gi+7SV4g38ob+QTm/nG68YORmZkju/axPHRfUQQ7ougcwITRx19FXX0OcKQra0swcODGC8cBsDciLGs2N64j0X12Tw6zocShKlKQCNw7+YwLJ0zwtO8k7sDJageT2VGq9IbSGXW4xEwcCloL8Cz3+vvdXLdYQw8wopxISGWmVi43FIcWHaCkHBAmGgCGwGHe769AuN79kSgR2LQcvYc/GQF6oxURWLQnktout8bV80js8D6jcm9+dtL3GYF8+/HOHjF7DYvIAZf4cDEIOGAMNEEEQ7U0Vdh4u72EjTlrfY2W6zufML/9TVOXasgaWsJK1eU2BvHMlznORRpw6oYdXDT64PFzNz6MivLXx7bMU9spi/lS5IyzMRk2Jr6W3dz+dkyZo9Sb0GYrgQxRChMa2SIUAiAvDEoCGGOGIGw4A6riy9i/uwi5sO3yZtsdYQphYQDghDmiCcgCGGOGAFBCHPECAhCmDOiEVi6dCkzZsyYKF0EQZgExBMQhDBHjIAghDliBAQhzJm0qcQFKa1sjAM4x5Gjr1EzWYpMKKno00tIUQHWz/lfbeUYJlslIewZ8WWhpUuXcuXKFe7dG9tkYH9on2zi18uvT7ub/wndW7yerIILn/Hqr+7nRXy7MbD8ibXdUn9QmFwmIRxIJW1xBMNnm6aPAVizmb2f7GMLJs6PS4ed6M6cg7hnKBiX/gRh7EhOICBpvPm6mr+/W0yJ/sZkKyMI484ULC8WGE1tHy/QSMXp/0l5ltreaqFnz49pafOU3kuuIZslmPizdi3GUR+tg7dfkjm4woPL9PUE1NmUp9+gVptAhVZPz1AkyUUHFeseCIIQDBNvBFSpJKmGOXPFs1LQKBnqonb9T7kGQB3GsxaIimWBl2AJ9doEKsbkBYSQb09jYhmZT6ZOtiZCmDNxRkBVwScbWmlfCe8dzUJnDfyRB5s6Co9m0BJVQvuGVqoXTrY+QrgycTkBazkvHcVpDDadyqBwghYYmZKoKvgkfQXXTmWwtnuylRHCmYkPB6ydnLHC/Mgwd4NVc4jgHMZwNoTClGD6JgaDZi+5hj7KDe1oJluVUbGVyuZmmpsPs0s72boIDzLTcohwosl8Zx/rligaljzH7z95DrDS8+5v+CgkCwWYGLDAssgIkjdsBYMsOiKEhmlpBIz5CV6Z/mu6H1PhU7qEem2Jzz3B0vKrYlruq4excJydHS/TvH4Zw/2mwOKCMEYmIRzo5KIFIpZnhfUrswWLl4H1Fr1+JdawK20ZcI7/vUvWJBJCx6RMIHKbTReuswhHOG/neoSWHva9slOWJRNCyiQZAUEQpgphMDogCMJIiBEQhDBHjIAghDliBAQhzBEjIAhhjhgBQQhzxAgIQpgjJccnFCk5Lkw9pOR4UKjZ8u/5JEe6Ws5/WszbH421Pyk5LkwdpOR4EGS+k0/yrc949aViXn2pmHd7rCxd9xZb1oy1Ryk5LkwdJCcQBC2/KnZbbOTv+i7Oo+KJZ9UjfEoQpgfTcirxxJYc90/k3HhApvkK05vp6wlMZsnxNbHMBSw3zRNxNEEIKVJyfNSo2bJFQyRmjuvvwwuQkuPCFEFKjo+SzHdsowTnPz1wn9WGpOS4MDWQkuOjwFFr0NJTex/Dg3ak5LgwRZCS40HyhO4tpwEouZ8wwIGUHBemCNM3MRg041ByfMtrvJ6sGj8DEBRSclyYGKblEOHEksab6+IBiEzO5/efKPdJyXFh+jMtjcDElhyfrKXJpeS4MDFIyfFJQkqOC1MFKTk+oUjJcWHqISXHBSHMCYPRAUEQRkKMgCCEOWIEBCHMGTEnIAjCg494AoIQ5ogREIQwR4yAIIQ5Qb02nLfrJmUr7zi3LafieHrnQyFTShCEiSMoT6Bu51zin3uM+Ofi6BoKtUqCIEwkEg4IQpgjRkAQwhwxAoIQ5ogREIQwR4yAIIQ5YgQEIcwRIyAIYY4YAUEIc8QICEKYI0ZAEMIcMQKCEOaIERCEMGdsswhDpo4gCBONlBcThDBHwgFBCHPECAhCmCNGQBDCnB88+uijk62DMAp+/vOfByX3hz/8IcSaCKFioq/xtFyaPNz54OAHI+7f+tOtE6SJECom8hr/4M6dO4GlhCnF3bt3A8rIdZ3eTOQ1lpyAIIQ5D3A4sJdcQzZLnNsm/qxdizFUhyvahiEr3rVtakWb3x6qo3nx9rtX2EwMi15/eMKO6Y6aPccKSYlybFvp3rOL0rZJUscPBSmtbORPrO2umzwlVBV8kj6HlqOvUeNX6Hsa/3iN2M44Uj8MrToPsBEooV5bAsB8/Rfkrwrx4aoq0VaB82YI8eGUFJQNsHlpJIfWuRsA1W4z6nh32dvG3Xzz21DcACZK1++w/Vu0DUNWdAiOcX9on2xiY9w5jhydRAMAYC2n5UorGzccAL+G4CGyOyO5/OIVOgmtIZBwYLrzCytvrYAT76h409d+cyPG3HjbX6uJmZoyHn8jb6K1nHwWHuDXy6G7baSn78RR072XbusyNqaMcC0+VPGbzx8h8UUrb4dQFzEC05p/0vmiBcvnUWR3BiHe8DGXrTAzOjHkmk0t8qheuYzhswfQWSdbFwed6E59znDcy1Qv9C9VszuKExYLm9/9Z8g0CToc0NT28YLasWWhZ8+PaXGL9zxjcA+Z9INsL/0RvXsqoUhHsiN2NDVSkV/idiyb+x6paPFxvKJ2yrPUru2hLmrX/5RrwZ6Qkzwyjyn08Xlu44hn7mDIiH59Ax1KmfQcPi3VEOH1YTPfNH3v2vzFPRKJ5NDuCVoSzkP34ZPVrNOZRt1Nmn4nulUqV4NH/qSwdj+baEV7+inF8XzlGILMQyx8BjXnOPI3/5by4Te+JEmj+M1ZuzhTtBnnrZfTgSYDTLkf88OqMhY51Dc3Yiwrtm/sY1F9NrTGc2Oesj8Tptw0vOyPIyxIqkD7bTkGn5o5woJhGlOjgzP2oyQITyCPzGN9vKA28WdtAhXaBCq0lbDxIPMdIukH2W7IZvZJvX1/ArUnIbm0j9wiZV+RJJfqmNtm76fJBOpsd5midvJXQc+eBGdfFVr3m3K+/gvKs2IVMnp6WE2+oR3NqE5/L7kGHYlnXXpXNN0gufQLMtNH1VFQpOl3YsiKpnvPDrTaHWi11XSjQWfYRqFDyG4AOFltl9nBYROAmcPaSr5Q9Pf20xawPESwt+HDb2xnkQr6vy4OLOxT93h6m3Y49fodmewZ5fdUWLsf3aoBDmsd/bTSq87AcCyHNKWgOgND+gB6x/c0pCKlSCmzlhpDIUlnXd+TtmmAlNKdXjoVLF4G1lv0+lMqp4ME3nOFTbmN9KtWk7R7n4egGnV9GbNNu21y1V3cjs9mUY67VEyGmST1V5zJjceYu5vLVjVqr75s1Fw6B6o5jOibfTiDXu4Su3QkobET0AjM128jOcpCzx5lZr2OlnzXU1ezcTWzhro4rHMlXK7pKukZgiXP7HXr70JTAvVV9o2qv3ABmB3niovmx8UCN7jm90m8l/RVkQyerFQYhjpaqroYRM2Pivx9zte5ZbLEQ2+qGukZiiRxzXjHzWvZtErF8MkGxZPKRGmVkWHi0Tj0TowmAitnjrtu7erTZiCaeLcf9/c8Nhcsf5sxcowbn42m3oym3kyS5gam3HguN4xS9fQc/m2ViuGT1RRUuZo7dJWjy/6n5/C8GnqbKql2NrZT0GSGKDVrlefn5iGZaD9rhaho582Spn+WxCEjv1N6IlUtdA+pSFqj8BBJ5bFIGL7U6edJCzSkeSRLixkyA9GL8Rxr6W+Nd8meuMQd4NF5Hr8VcyNGpxdRxz8GfPcFgPUWwyxDM0JIAA9xwwKJT4cmJAgYDiyIiYShLox+L3Ye82Ng8Gynhyteh/HsNpKXL2Y+BO2mX9O1cMGQzQuGPl7w5ZqnL2Y2FnqPe2R42zrpLVpNYlweEFz2d0FMJEStJt/Q570zRu3ddj+kz2OBx80NQFs3Z4o0JMWpARP0DjBMvO2H3GaTLXwmHoaMtLfBE85HxvfERhIYh7ua04EmQ82CN/KwjnZ0wG6Yuj11Hy2J0URgxljl0V71Nb1ZGUQnAkEalcQYFURp0Bk06Dx3xiSA0z9SM0flKeBJHjFKF9+Bl/9u4Z7bT6WYy7neXtXtAXefw1oWH7qh6XFgCg4ROob27LF6aR/JpR4exHgy5lxCiGi7ztVSSFxViMH56DJzWGt7Kj7hFLQ9HeYF229DGqanzKg1r6Cizvv3PR3xlU/xwsQtK67Q1QuHAXCP21W7zagnbJRzmFtBXBDLzdDkfgKGA1f7LRAVywK/EnVc64dZy1M9vug8NMsjof/SGG+wOlrW2+N9ZVjRdonv8OGup6eSGAXfXQn+KRf43MaRtutcxdNVBdJTSIqCq1dsTy6Hm6vXumJvrVbpPjt4iIs3IfLJexQEqYK1pYvb2LyBUdE7wDAq7ntQwe7laDxDtqKnSMTKgN+g3UdX/e7hgX86uWiBiMWpaH3uT2SGCm4bP54cw6iaQwTXuTjiwW1e3/Wrk2QErulauICaF44pEoHkkVnr2jaeNkHUajbpFbG9I5dwpIT7Q83cKBjsd7h3JXxlglmrtimSd3lkFtnyEm2j8BZ8n5t/tr7fTHNzM83vj2XyRjtGE0SsylEkrtTsKdIQMWTksFLvoH7c8OaXkRD5D7SpQapwwsB3VpipeQVPz3fNzsO2c/t4F2s8P9fWQLMJErPck25p+m2jSwy2dXNmCBKzFIlQ1lKTFQ+mE6PKL3ToTtBLPJs8E4o+sCXflpPmMyzo5Z7HsKmvl6xCRcCkJdhHgR7hxvnQ6BBEOFBCvdZE5jGdIna2xerOJ3zVWip6D7K9VEe5wRGhje01XfehSBuDJ/W8p0jeGfMTuKr/gnx7qGA7nMdQY/pBtpeuZpazIdKeZ1D2V0K9FnIN2R55AV/DhGtYPNe/3l7DXlEZGAwZKIetqvN30Kvfia50Pwan3u7DYx26BtYeK2STYT+bPI7R27SD/1I2fDiD3hctPPviP6EzmNeF6+g/8QqLMtRE5YBVkSBUx3gPSCrxpfvwyWrWOb+jtdQYMtyMV4pD1nmOtrcKC2v3u53f8MlqtKMeamynQAs1hgyPvICPYcJvT2PiZVKW54HX68J19DdomV2YjaY+29ZkbuSMMZOkcU4LeaGqIDMOTKf8DQ8CfE9jqgXOx4RkeBCkxuCUo7B2P5tivGPdwtr9bFLb3hPI+7DSteMXVi6/+H848Y5rDHnbL7ZRVRWKBMo0ZuEB2lfOo7sta4q8MJSKPr2EFIv3PIaioiIq7de4oGyAt1b8dw6tc38jdDyvsbwxOKVQEx8zQvvQAIOeuz5Ucej8XZ791QCNwYYF4ci3r3HkSgQp6U3oA44WhJ6ClBJSVOc4MtJEpl9YeWvFXXr/w88r4eOEGIEphYnS9a30RmnQGfZjcP4VktLfinZ9Axd9fOrN1+NshuDF0L1a+iBQ051hMwTLJ3nuhKqCzLhzHAk0izDVQu9/yCzCMKSdAu3opyC/+XpcSJ8WDwo13RmTP4HIWs5LRwMJPUT2z+ImQhupMTgdeeSRRwLKyHWd3kzkNRZPYBoiNQQffCbyGsvogCCEOZIYFIQwR4yAIIQ5YgQEIcyZmonBtNt8WXwL50zZoTns3jQzyAnCIehHEB5gpqYRAOBRuvbNZbO/eaJrNrP3dY3rBr/wGa/+ykO4YyZPd8wEIG/XTcqeCpWugjB9mZ7hgN0A3Py0mFdfKubVlz7j/JLn+P07geaTCYLgyTQ0Amq2bNEQeeEz3v7I0dbB25+aYclqtnjNgxUEYSSCCwfspalceFZPDabKqq2Cy2zTbr65/oqiPwuXq5+m/0SwKsczJxLOH3d3/TOftk0Af+JZNdxvGSw3bBWOEs/qOcw2RRVkf1Olt1LZvIF53fvYtOu43163vt/Mhrk97HtlJ/6lBCH0BPYEnj3E40/9RVGJ1V49teqQV+HEYKqsztSU2Us32/ozmSNZlOPdl1/WxDIXK7ecBRbUbPn3fay5+Rk9FoicG5pqELNW6ciPabFXJW60FSOp3Rv4g4IwxQlsBE5s5psyZTHFOoZMFlDFMsNTNpgqq9Yuzii8iHsDfvryx9JoVzKQNN78JJ85x4sp0ZuD7WFsuBUtsVU3ImZxUBWJBGEqE1Q44Lvc0g0vuaCqrA5cQjnh9Z+/fXp01YfOD2AhGpZuZu/rav7+bjEfKfxpy80QGwNf5FXSvH6Ze1tKMc3NduN5/ijP/xIqmzfgLpVMcXMzNqlzHH1+GyOvSi8I409AI2AzAO5xu221llCr5ofjN7j5uobkddF8+tJvaHHusOUKJoW6bTzvfPnAf05g2/OuW1xyAsJUIUA4kMcPowFzyygSd6HGzC0LcOFvCgMAbHmSpVj5+4nxTAoKwoNPACPgHdd7rdk24Zj46LgZljzHm1scbWm8uS4eLnS5hQbBs5XKZlsl4cowXLBXCG8ChgPWskb667NJqrfH2tYuzrTGkpQRatVG4KMDvMpr/H7dPn6/ztZk6anlVf0YvQDt4uAX8QjIB25uv1+pXz4v8b8wJZia9QTSbvNl8V2+Gum14VFie234EZk7IAgeTMM3BgVBGE+m8ASiO6wuvoi5mHGcRRi4bpsghBtTMxwQBGHCkHBAEMIcMQKCEOaIERCEMEeMgCCEOWIEBCHMESMgCGGOGAFBCHOm8MtC98tecg3ZLHFu+ysHNk4UbcOQpSi6YGpFmz/61YXHyr6qi2Qzj/iioMuzjDNq9hwrJCXKsW2le88uStsmSR0/FKS0spE/sbZ7El8eV1XwSfocWgIsTX7o8BViOx4jLcTLKD/ARqCEeq2tEtB8/Rfkrwrx4aoq0VaB82YI8eGU5O26SfayWTQ+524AfBWDuW3czTe/DcUNYKJ0/Q7bv0XbMGRFh+AY94f2ySY2xp3jyNFJnj1iLaflSisbNxwAv4bgITZ3zMK84SIdhNYQSDgw3SmwULYSuvZFUuxrv7nRVR+y1cRMTRmPvxGG86UXHuDXy6G7baSn78RR072XbusyNqaMcC1qItl96lHUGyzs8y9134gRmNbco2PDIJZTs4ObbdnwMZetMDM6MeSaTS3yqF65jOGzB9BZA0tPDJ3oTn3OcNzLVC/0L1W3czZdQ4NkV90LmSZBhwOa2j5ecFYdt9Cz58e0uMV7njG4h0z6QbaX/ojePZVQpCPZETu6FfC0YXPflYVLfByvqJ3yLEUZ9KEuatf/lGvBnpATW0lxpz4+z20c8cwdDBnRr2/A7R5Oz+HTUg0RXh82c1hbSbVjs+AeambRuPOhECnrgYfuwyerWacbfQ2HNP1OdKtUrgaP/Elh7X420Yr29FOK4/nKMQSZh1j4DGrOceRvnX518iqWY+3ijLNoLvay+2DK/ZgfVpWxyKG+uRGjsxBvMKX3FTjCgqQKtN+WY/CpmSMssHIobca4Ta1XEoQnkEfmsT5eUJv4szbBXnK7EjYedFXaTT/IdkM2s0/q7fsTqD0JyaV95BYp+4okuVTH3DZ7P00mUGe7yxS1k78KevYkOPuq0LrflPP1X1CeFauQ0dPDavIN7Yyu9OFecg22NQWcx2q6QXLpF2Smj6qjoEjT78SQFU33nh1otTvQaqvpRoPOsI1Ch5DdAHCy2i6zg8Mm8DIAwL5/HYShh+j1OpJvHn5jO4tU0P+1z8AhCN3j6W3a4dTrd2SyZ5TfU2HtfnSrBjisdfTTSq86A8OxHNzWj1JnYEgfQO/4noZUpBQpZdZSYygk6azre9I2DZBSutNLp4LFy8B6y//3lNNBAu8pyuo30q9aTdJuTydcjbretnaGMTceY3UXt+OzWZTjLhVM6X0HNZfOgWoOI/pmNTMwcYdY9UhCYyegEZiv30ZylIWePcrMeh0t+a6nrmbjamYNdXFY50q4XNNV0jMES55xr81/oSmB+ir7RtVfuADMjnPFRfPjYoEbXPP7JN5L+qpIBk9WKgxDHS1VXQyi5kdF/j7n69wyWeKhN1WN9AxFkrhmvOPmtWxapWL4ZIPiSWWitMrIMPFoHHonRhOBlTOKBVSqT5uBaOLdftzfs3guWL7+4chTrOOz0dSb0dSbSdLcwJQbz+WGUaqensO/rVIxfLKagipXc4eucnTZ//QcnldDb5PSmLVT0GSGKDVrlefn5iGZaD9rhaho582Spn+WxCEjv1N6IlUtdA+pSFqjvFtSeSwShi91+nnSAg1pHsnSYobMeJfLB/pb412yJy5xB3h0nsdvJZjS+w6stxhmGZoRQgL4ATeGQP2voQkJAoYDC2IiYagLo9+Lncf8GBg82+nhitdhPLuN5OW22vzBuunXdC1cMGTzgqGPF3y55umLmY2F3uMeP/22TnqLVpMYlwdBVh5YEBMJUavJN/R574wZZ7ObPo8FHjc3AG3dnCnSkBSnBkzQO8Aw8bYfcptNtvCZeBgy0u52Df4vsVEExuGu2leRWvBGHtbRjg7YDVP3/a7slBhNBGaMVR7tVV/Tm5VBdCIQpFFJjFFBlAadQYPOc2dMAuDQVc0claeAJ7bVsRZ5ynn57xbuuf1Uirmc6+1VBVV6fwoxBYcIHUN79li9tI/kUg8PYjwZcy4hRLRd52opJK4qxOB8dJk5rPXIG9ifDrHB9tuQhukpM2rNK6io8/59T0d85VO8MHHLygiLxDgMgHvcrtptRj1ho5zD3Ariglj6Q3O7BgwHrvZbICqWBX4l6rjWD7OWp3p80XlolkdC/6Ux3mB1tKy3x/vKsKLtEt/hw11PTyUxCr67EvxTLvC5jSNt17mKp6sKpKeQFAVXr9ieXA43V691xd5aj1yAjYe4dBMin/oHwQYu1pYubmPzBkZF7wDDqLjvQQW7l6PxDNmKniIRKwPBJjeA3n738MA/nVy0QMTiVLQ+9ycyQwW3jR9PjmFUzSGC61wc8eA2r+/Gt6FJAAc0Atd0LbZ1944pEoHkkVnr2jaeNkHUajbpFbG9I5dwpIT7Q83cKBjsd7h3tiXAZq3apkje5ZFZZMtLtI3CW/B9bv7Z+r6tLHnz+1tHdwoAtGM0QcSqHEXiSs2eIg0RQ0YOK/UO6scNxf81C6Luog12RfYTBr6zwkzNK3h6vmt2Hrad28e78FrYua2BZhMkZrkn3dL020aXGGzr5swQJGYpEqGspSYrHkwnRpVf6NCdoJd4NnkmFH1gS74tJ81nWNDLPY9hU98rboWGgElLsI8CPcqNEC2pEYR/UUK91kTmMZ0idrbF6s4nfNVaKnoPsr1UR7nBEaGN7TVd96FIG4Mn9bynSN4Z8xO4qv+CfHuoYDucx1Bj+kG2l65mlrMh0p5nUPZXQr0Wcg3ZHnkBX8OEa1g817/eXsNeURkYDBkoh62q83fQq9+JrnQ/Bqfe7sNjHboG1h4rZJNhP5s8jtHbtMMtMUfNDEwbBln98j3oCOZ14Tr6T7zCogw1UTlgVSQI1THeA5JKfOk+fLKadc7vaC01hgw345XikHWeo+2twsLa/W7nN3yyGu2ohxrbKdBCjSHDIy/gY5jw29OYeJmU5Xng9bpwHf0NWmYXZqOpz7Y1mRs5Y8wkKUTZeCeqCjLjwHTK3/AgwPccShuEc/NCMjwIUmNwylFYu59NMd6xbmHtfjapvYcJKbBg3vBPusaxPPsDycIDtK+cR3db1hR5YSgVfXoJKZaR5zHk7bpJ2cqHaXzOzxuh44C8MTilUBMfM0L70IC321gTSeO5O6wuvsmhYMOCcOTb1zhyJYKU9Cb0AUcLQk9BSgkpqnMcGWkiU4GFspV3MB0NnQEA8QSmIN5uNRBwVuLkzyKcHsgsQm/ECAhCmCPhgCCEOWIEBCHMESMgCGGOGAFBCHPECAhCmPP/Abr6tmO5Eat9AAAAAElFTkSuQmCC;movable=0;resizable=0;rotatable=0;deletable=0;editable=0;connectable=0;" vertex="1" parent="1">
                    <mxGeometry x="60" y="370" width="257" height="156" as="geometry"/>
                </mxCell>
                <mxCell id="6" value="" style="shape=image;verticalLabelPosition=bottom;labelBackgroundColor=default;verticalAlign=top;aspect=fixed;imageAspect=0;image=data:image/png,iVBORw0KGgoAAAANSUhEUgAAAMcAAACzCAYAAAA9tggRAAAfxUlEQVR4nO2de1BUZ5rwf8RLFBkvn0NoRaPIZctkNQUBXVwrS8QSJU6iILipKbcQBa9lpqYmwkeZUipJ25jUlrG8gnGsWLMawNUkrhEMhqSMDNh074er1ie3deTS0HHV+bRCcLS/P07fu0/TDadpJO+viir6vZ2nT5/nvZ33eZ6gB//voQmBQODCyP97qznQMggEQ5Igk8kkRg6BwA3PBVoAgWCoIpRDIJBBKIdAIINQDoFABqEcAoEMIwMtgEB59lX0Unntb/zU67oROXZ0EEvmjGRbyugASPZs4ceRQ496lgad4mUFnthX0csX9Y8dFWPeGL4oGMcfl8NPvSa+qH/MvorewAn5jOAn5dCjnnWQyCv5xFmSDGVkz4omYlY0ES6KEEvOnmbSNXqfrmIszzG3F012udE5l8+zpTy11ovGtBqprewynFvqP8rJYP9dPbVVee1vMjkm7nZ7U05gwe1LwAcPHnisNH78eIKCgmRyjXyeXQDqElar3KfpNNHsj7rCsVWhdvX0qGdVsLTFTqH6QKeJ5sLiRgri3ee5XqMv3Mnef/whg06TQ2OWvHzJ6kdeX6mqYJwPcv3ycLvm6OnpQaPR8PTpU5e8mJgYtmzZItugsbyAilQ1xxx+vFBWHyvpQ5RpRCY102iAOK8eTD0XitexNN+tFDTeSiIly5eHEjBUU8ESihRQDP/IoOdCcaTMd3bH8/yxYCQvAg9v9/LWnx77JssvHLfTqrCwMNLT013Sg4KC3Kbb0FOyHVIWenggDGXsL05yUyaU6Jhqmtu8kBrA0ERTUiTT3eZVU1EdSbSvD3lbM9/GROHj4+wef8jg6Tu7IeO3QVxXP+LwbRMhIWJj0ldk79jChQt55ZVXHNLS0tJQqTz82oYmmpKWsEiuiKGM7AUFRJW6mxZIPW3kNO8Ed/8Q6VHPiiaiAIp8mJ5Zic/nNJlu1kS+4D8ZjJcrITXJa+Ut+1MPHwMzQoL4S/vPvkryi8djd5Kenk5wcDAAc+bM4bXXXvPcmqdeT6shYkElKVfcrxEs0wlZxXLC+N/N5CyOdUqNpaClkdMxBZR4swB2wrKGae3PQz0IMtxpqiZqpq/j2ihU4xwX4wLv8KgcEyZMIC0tjTFjxvQxnfKMsTyHiEw43SK/kNQdL/ChVzRy6TxejzI6TTQRGr15N0iDzty7O+76mNcwLoorlXXdDfONgckA3o6sY0c7b5Q8x+QxJgx1kPHbsXw8T66cwJk+J6IJCQmkpaUxadKkvluLTyGnuMJxOmAoI297NfAp6XJbuVoN6bfUFHm9q9NGs+x83tMD5gEf5/Oe8YMMXo6sS+Y477E85W7PcywrGMfGkKf8oU6unMAZr+7Q/PnzvWwulqW5mewvX2fbvlRlcKwlQ76KoYzsTDjdkuH9QtjQRFNuivupj5sHLC6/kVazfK0t5rSWRodq0nxe7SqDoYkm3G0g9CGfkjKAecqa0uc9srz5tr0hf8wf/tW2SyXekPuASXF0pg8jdpvqFS9ro7tsvWlmRJRpZkSU6cOrLrmmU2vl8txwdbfU1tpSU7dTVv3uKNPMiPWmU50+CqigDPbfdW2Zc67AnwhLQIFABrH5LRDIIJRDIJBBKIdAIINQDoFABsWUQ6zrBcMNxZTjr3/9KwcOHMBgMHhfSfsZRZMLzX+fcLFDCUnMZ5tm5fC5D6L4Sv3ek4SHnyTnbJddqo/2G4IhjaLTqlu3bqHRaPj+++/7LtxxnsMprcyo2Ene3Z0s+9/30e04T1ffNT1iLD9I054rtHo4qjIwujiz4SQ/vPY2X77rnBfK6mONtJauo+SgkkZTgkCg+JrDZDJx+vRpjh49yr1792TLddU08oAIXooHMNB1A/iikQbr6NH/M03Oh/OM5wo5ce5rPli/iaz1m8g67GhxKFnZeXsSN4yVR95mm6eTidMied1XoQVDDr8tyK9du4ZGo6G2ttZtflfrfXjr14Rh4GL2Ee6+kcAE7nN3gFOrO03VbtOrzt4h/eghjh/NJVn7JVV+nHKhiiKqupk7fryEwP/4TTmCg4NZtWpVn+eyGj4+QvMbG/jnROcc6ei31yamZht1ObPZqBVvMhuAKUyd4pgXuqpkgMfUnYmloCWFCwqc5hUEDr8czXzllVdIT09nwoQJsmXCIibC7qs0v7GBjekq0P7IAyYSObWfFzUfcNRpolEjYzMyaFjs4RsVVDjBYKPoyPHcc8+RkZFBdna2R8UACEuMZgIwcYa0am6oboW3oplrVY7+rTmmRyX5LLdvaw4vUPT4uyBQKDZy9PT0kJ+fT1hYmHcVpqayseJHilIKKQIggmV3U/GydkCp33uSNz+yfLpE+JYx7NeuZOUUT7UEzxrD7lSusTyHPNQ+usNRGK2GiIOR1B3zwUZFMOQYdsdHQldtJmr7Ar+/BHSP+SVg5qfkbBaK8awz7EYOgUApht3IIRAohVAOgUAGoRwCgQxCOQQCGYQ9h0AgQ2DtOYCu059QNLmQU4rZPwyGPcd19oVL9hzh4Wc402lJF/Ycw4nA2XMADR8Xcjz3vpIiDII9B3SfvQVfvU17+9voD8DWXVeQXNEKe47hRMDsOeg4z5UbCWRdS8D9Kayhas8BL6xYabXneGF+GKnOBYQ9x7AgYPYcTE1l4zHlz1INtj1Hd20X52dP4AX7RGHPMSzwmzfh4OBg0tLSSEhI6GcLkj2H11hjf/TTnmNVP0TUXSR2Swhftr/slBFLQQuoZ0Wzf4+vYc8EQ4WA2XMozmDbc+guEv6bh+zXruRVl0xhzzEcCJg9R98MYXuOzivkmBXD7TF1Yc8xLAicPQd6Tk3+ktvmTw9SCikigmV3/4W5SgnlF7o4s+s254Hz8SfZak7N+6oPpwuCZ45hdypX2HMIlGLYHR8R9hwCpRh2I4dAoBTDbuQQCJRCKIdAIINQDoFABqEcAoEMQjkEAhkCphyPH/Xy572Xqfj9OSp+f457zXf9er222jv8ee9lHj/qtaY96nrId+9XKXrt7rNnzHYeJwnfe12xdgWDT8CUY9S40fzD7xYyb4uLB+lnmOuc+joMffvbtLfPJe+jBvYp5mNUMNj47VTuQLl17iatl5oBiFgUSczy2Tx5/ITrnzcwcuxIjDe66bn3kzXPuQ7AmEljeSl9DjdOX6Pn3k8AXHqvEoB5WxIZHfI8AMab3dQdqLGmT4qcbG5Bj3pWJk1en6x9mW1HbP//47sN/DCguyAIJENSOdpq79Bzv4fFRct42vuE+pI62mrvMCVO8jJtvNFNfO58eh/+TMO//SfhCdPpffgznfoOFuYlMTpkNPUldfzdb2YzKXIy//RSMm21d2iruc2rOfMYNW40IE2rAOu1mitucafmL4x/cSIjRo0Y4Le4zg8fjWH66gE2IwgYQ045njx+wv80/kinrp1OXbs1fVriDOv/U2KnMi4shN6HPzvUff5XzzM6ZLTP15ye+KKMMvhoU2KlizMbGrh2YBHbhHPpZ5YhpxwW7KdLFp48fiJbPkT1K8A2bZoSF874Fyf6T0BZujiz4RJbZ8+lfcWz4DNeIMeQU44Ro0YwZuIYOvUdhCdMZ1xYiFf1uv6ri+BfjyNhS6ICUyILvq45oH6vWTF+52wdKHjWCJhyPOp6iLa41rpQrjtQw4QXJ/JqzjwiU2Loud/D5SKbPfi8LYkeR4Kwvw+jreY23+R9bU2zH30s+e4W5Iqhu2iO29FA+EcNUtryGbQfWaDsdQSDwrA5lXvr3E167vfw8uq5jBg1wu0CXCDwhWGjHPea71q3Yy04bssKBL4xbJRDIFAacbZKIJBBKIdAIINQDoFABqEcAoEMIj6HYAiiR+21kz1fyvpGgONz6Dlh8Xy+vpibdjnGc4Xm9E18cM7W5s3Dm6zpznn9Q88Jp2t7w83Dmzjh9+PoBqres3zXQifn1/L3rr9Inh8D4dLIQQo+z86E0nwHV6o6jRT3xDX2SSwFpZCe7YeQDyaFuH//vmnbtm2md955x/Tdd995WUtn+mzdEdMNNzndX+0yvf9Vp0v6jUMbTZ/Vmz90nje9v26X6RvXYj4gL4MnHOTwO52mb3bIfc/+ye9Kt+nU2t2m+qu7TWvLugfcWr+lKFtvmrlb5yFNZ/owYr3plNO9qN8dpbjcgYvPoQSqWBKnGOjoAMsIUGU34th6dvse2DbaSKNQMVXoKXKJ3eG+DrpistZvokgLVQcde+6bh51GMl0xWe99jZE+YoQY7NIVGgV0mmgifOlNDdVUxKQQNy0Szlfb6mk1RGjKrBGr7H0KG8tzyC4vM0fSsr+e0a68fboetdPIpNPY+0M2cuk8aLJi7QRzSjM00UQ1FZcdv1lcltpRbgUIXHwOJTDoqemMJd46/uqpYQPHjx7i+AdvcvuM9GDePFxIzfydUvrRnSTWFnJCB7M3muN1EEve0UNS/kbpR5CrQ1wux48eIi8ekjeb6xzNZTYwe8WbUKu3/kA36/Qkr1xm9XxoixGykzXtxWbl1XNihyX9EMc3Q5FZoQYT4+VKohbHgiqJFCq5ZD+1Kq4EdSOtLY3U7Wlmv51z72+3N7O0Rco7HVNAiRasEa7M6XWpleSVG4FYcvZg92DruVC8jq2WQ52GaipYwiKHiFxtNFdHEq1CUtQFzaTsceMsXBVFVLWT3ANkCMfnkKfq4CaqAFCx5oOd2A62x5K+3HxnVcvY8T6AgYZ2FYkrLHdcxdz5Kmo6DBAnFxfNQIfPdZBGMo7QYFhGskqPtv1NltpNnG0xQuza4ypV6Klav8lWcMrA/bPH5TfS6nVpqXeOVAOEsigV8i4bWW15aHM3W0PIha4q4Zhdzdf3rLOuDeLybSEXdJpo0ovty5nrL1wCBdUYV2UQqq2gya6+Ryz+h1syoDyHCpcC04j03cG+R57J+BzJmw+xZkh6NFeRvHIKH2gNJE+9CitzZf3l/thmgGnmD/G51hErIBiqqaiu5tsF0eRb0pLMD3B/2tNqSC9ex+kWaVEtOfc2o8pga0wOlwwZRH8DW/P7usI0IpM+Jf2g2uqYW9dUDVHO5aQRZqmCcSCHcHwOpVAxNdxAjdYy3uq5cNbAjKn2d7GTDoOvdeB2h5sxPC6BGbV6quqwm+45o0erVZEYr4K4BEXDsFnwZc1hvFwJe65Yp0GtLaXkDDRsmzU+iZ6S7Y6h6OIWR1JxuYwLpDiOGu6mdISyKDWJ11OTJEU1lLG/OImUhU5K5YeYKAGMzzF4zN6Yy4z1hWSdlT5HrdjJDuuvEsvSFV/y7o5NnABrL+65jnl9scOSH0ueed0BscSHb6KIXI47ydF01tZe8uZDJKuk8ms2XyXLcn3LtZb7KRSuC0Yuna8marP9wxbL0txMLmjz+xeZKn4dGhYwb1YBsA7NniSaHPJTiMrMhFJnE2RpSjfvuJ7V+baRNHSVmpTsBURslz7nlDa6RArWHS+A1CvKerZXdO/LZ3zfyh36uN92Hdj3GYyt3EGks9S0dm2pyf3Ga7fp1Noo04dXfWjv6m7TTNn2+s8QMJOVtlEde18JS087uD1pfzFQ9V4hJzrNayJFxLW1CSrWOOSZt64BiMXfIRAVwRzU9Fuk9Yj7Xj6U1cdKpbfeLd6MXHrUmXC6Rfl4KMKeQyCQQRw8FAhkEMohEMgglEMgkGHkgwcPAi2DQDAkEQtygUAGMa0SCGQQyiEQyCCUQyCQQSiHQCDDEDg+IlCafRW9VF77Gz/1uu61jB0dxJI5I9mWIvwH94UfR46h4UHil8a+il6+qH/sqBjzxvBFwTj+uBx+6jXxRf1j9lX0yjciAPymHHrUsw4SecXu4JihjOxZrnbIErHk7GkmXaN3ackTkrcMqc3scmfLBZsds6O3Chm0Gid7ZyVQTgb77+qprcprf5PJMXG325tyAgtu33P09WJw/PjxBAUFyeQa+Ty7ANQldmfuHdN0mmj2RzkHhNGjnlXBUq9OYkroNNFcWNxIgZsjqe6v0RfuZO8//pBBp8mhMUtevmT1I6+vVFUwzge5fnm4XXP09PSg0Wh4+vSpS15MTAxbtmyRbdBYXkBFqppjDj9eKKuPlfQhyjQik5pp7MNM24ZknL80312ekcZbSaRk+XiI2WzgX6TIcXN/yKDnQnGkzHd2x/P8sWAkLwIPb/fy1p8e+ybLLxy306qwsDDS09Nd0oOCgtym29BTsh1XE0Z75MwcCSU6pprmNi+kBs9mkYZqKiweK3yhrZlvY6KUsQvwhww+moJm/DaI6+pHHL5tIiREbEz6iuwdW7hwIa+88opDWlpaGiqVh1/b0ERTkrNrFft8ydglqtTdtEDqaSOnuavoBrcPkV7yoVQART5Mz6zE53OaTDdrIl/wnwzGy5VgsaX2grI/9fAxMCMkiL+0/9xneYEjHruT9PR0goODAZgzZw6vvfaa59Y89XpaDRELKkm54n6N4N5nkTzG/24mZ7Gzxw4pNLLNf5JvWNYwrf15qAdBhjtN1UTN9HVcG4VqnONiXOAdHpVjwoQJpKWlMWbMmD6mU54xlucQkQmnW+QXkpKBvLe9otnPkpejjE4TTYRGb94N0qAz9+6Ouz7mNYyL4kplXXfDfGNgMoC3I+vY0c4bJc8xeYwJQx1k/HYsH8+TKydwps+JaEJCAmlpaUyaNKnv1uJTyCmucJwOGMrI214NfEq63FauVkP6LTVFXu/q2HnBc8HTA+YBRV27+EEGL0fWJXOc91iecrfnOZYVjGNjyFP+UCdXTuCMV3do/vz5XjYnuXTZX77Otn2pyuBYS4Z8FUMZ2b4ayBuaaMpNcT/1cfOA2bz/xdLaYk5rcXQLI83n1a4yGJpowt0GQh/yKSkDmKesKX3eI8ubb9sb8sf84V9tu1TiDbkPKOzNxCR5wd5t8s4BuS9lbXSXrTfNjIgyzYxw58JFcu3iPs8NV3dLbblx7VK/O8o0041Hby8kVEwG++8aSO/nv0SEsZNAIIPY/BYIZBDKIRDIIJRDIJBBKIdAIIOIJisQyBDYaLLazyiaXGj++4SLHUpIYj7b5NeoqNfZF36S8PCThIef4UynJd1H+w3B0EapPWGfo8m2/4fp0P/aZTppfg/wfz7aZdKs/Q+TYYBydJet9/v7gK4z/276pN72/9TcH0xd9gX85BJfMLgELJpsV00jD4jgpXgAA103gC8aabCOHv0/0+R8OM9jJFcsVnben8R9YcVKtplfz78wP4xU5wLTInndZ6kFQ42ARZPtar0Pb/2aMAxczD7C3TcSmMB97g5wanWnqdptui2Sa66iYca6a7s4P3sCL9gnqqKIGmjYMEHA8ZtyBAcHs2rVqj7PZTV8fITmNzbwz4nOOdLRb69NTM026nJms7ZIrlOYOsUxL3RVSf+OqesuErslhC9/97Ib2VO4oMBpXkHgCFg02bCIibD7Ks1vbGBjugq0P/KAiURO7edFzQccdZpo1MjYjCiJ7iLhv3nIfu1KXnXJtNjDNw7ALkQQaAIWTTYsMZoJwMQZ0hnshupWeCuauVbl6N+aY3qU78GofV1z0HmFHLNirJziJt8PkU0Fg0/goslOTWVjxY8UpRRSBEAEy+6mMvRi0TrTxZldtzkPnI8/yVZzat5Xb1sX6YLhwbA7lSsFhFf76A5HYbQaIg5GWoPKC55Nht3xkdBVm4navsDPLwHlML8EzPyUnM1CMZ51ht3IIRAoxbAbOQQCpRDKIRDIIJRDIJBBKIdAIIOw5xAIZAisPQfQdfoTiiYXckox+wdhzyFQBkWnVbdu3UKj0fD99997Vb7h40KO595XUgSM5Qdp2nOFVg+uRwdK99lb8NXbtLe/jf4AbN11BckVbSirjzXSWrqOkoNKBsERBIKA2XPQcZ4rNxLIupaA+1NYwp5DEFgCZs/B1FQ2HlP+LJWw5xAohd+8CQcHB5OWlkZCQkI/W5DsObzGGvujn/Ycq/ohosWeo92dPQeoZ0Wzf4+vYc8EQ4WA2XMojrDnEChMwOw5+kbYcwgCS+DsOdBzavKX3DZ/epBSSBERLLv7L8xVSii/IOw5fikMu1O5wp5DoBTD7viIsOcQKMWwGzkEAqUYdiOHQKAUQjkEAhmEcggEMgjlEAhkEMohEMgQMOV4/KiXP++9TMXvz1Hx+3Pca77r1+u11d7hz3sv8/hRrzXtUddDvnu/StFrd589Y7bzOEn43uuKtSsYfAKmHKPGjeYffreQeVtcPEg/w1zn1Ndh6Nvfpr19LnkfNbDP6zMpgqGG307lDpRb527SeqkZgIhFkcQsn82Tx0+4/nkDI8eOxHijm557P1nznOsAjJk0lpfS53Dj9DV67v0EwKX3KgGYtyWR0SHPA2C82U3dgRpr+qTIyeYW9KhnZdLk9cnal9l2xPb/P77bwA8DuguCQDIklaOt9g4993tYXLSMp71PqC+po632DlPiJC/TxhvdxOfOp/fhzzT8238SnjCd3oc/06nvYGFeEqNDRlNfUsff/WY2kyIn808vJdNWe4e2mtu8mjOPUeNGA9K0CrBeq7niFndq/sL4FycyYtSIAX6L6/zw0Rimrx5gM4KAMeSU48njJ/xP44906trp1LVb06clzrD+PyV2KuPCQuh9+LND3ed/9TyjQ0b7fM3piS/KKIOPNiVWujizoYFrBxaxzd2pXcEzwZBTDgv20yULTx4/kS0fovoVYJs2TYkLZ/yLE/0noCxdnNlwia2z59K+Yuj7jBfIM+SUY8SoEYyZOIZOfQfhCdMZFxbiVb2u/+oi+NfjSNiSqMCUyIKvaw6o32tWDJdoT4JnjYApx6Ouh2iLa60L5boDNUx4cSKv5swjMiWGnvs9XC6y2YPP25LocSQI+/sw2mpu803e19Y0+9HHku9uQa4Yuou8+RFAA+EfNUhpy2fQfmSBstcRDArD5lTurXM36bnfw8ur5zJi1Ai3C3CBwBeGjXLca75r3Y614LgtKxD4xrBRDoFAacTZKoFABqEcAoEMQjkEAhmEcggEMoj4HIIhiB611072fCnrGwGOz6HnhMXz+fpibtrlGM8VmtM38cE5W5s3D2+ypjvn9Q89J5yu7Q03D2/ihN+Poxuoes/yXQudnF/L37v+Inl+DIRLIwcp+Dw7E0rzHVyp6jRS3BPX2CexFJRCerYfQj6YFOL+/fumbdu2md555x3Td99952UtnemzdUdMN9zkdH+1y/T+V50u6TcObTR9Vm/+0Hne9P66XaZvXIv5gLwMnnCQw+90mr7ZIfc9+ye/K92mU2t3m+qv7jatLesecGv9lqJsvWnmbp2HNJ3pw4j1plNO96J+d5TicgcuPocSqGJJnGKgowMsI0CV3Yhj69nte2DbaCONQsVUoafIJXaH+zroislav4kiLVQddOy5bx52Gsl0xWS99zVG+ogRYrBLV2gU0GmiifClNzVUUxGTQty0SDhfbaun1RChKbNGrLL3KWwszyG7vMwcScv+eka78vbpetROI5NOY+8P2cil86DJirUTzCnN0EQT1VRcdvxmcVlqR7kVIHDxOZTAoKemM5Z46/irp4YNHD96iOMfvMntM9KDefNwITXzd0rpR3eSWFvICR3M3miO10EseUcPSfkbpR9Brg5xuRw/eoi8eEjebK5zNJfZwOwVb0Kt3voD3azTk7xymdXzoS1GyE7WtBeblVfPiR2W9EMc3wxFZoUaTIyXK4laHAuqJFKo5JL91Kq4EtSNtLY0Urenmf12zr2/3d7M0hYp73RMASVasEa4MqfXpVaSV24EYsnZg92DredC8Tq2Wg51GqqpYAmLHCJytdFcHUm0CklRFzSTsseNs3BVFFHVTnIPkCEcn0OeqoObqAJAxZoPdmI72B5L+nLznVUtY8f7AAYa2lUkrrDccRVz56uo6TBAnFxcNAMdPtdBGsk4QoNhGckqPdr2N1lqN3G2xQixa4+rVKGnav0mW8EpA/fPHpffSKvXpaXeOVINEMqiVMi7bGS15aHN3WwNIRe6qoRjdjVf37POujaIy7eFXNBpokkvti9nrr9wCRRUY1yVQai2gia7+h6x+B9uyYDyHCpcCkwj0ncH+x55JuNzJG8+xJoh6dFcRfLKKXygNZA89SqszJX1l/tjmwGmmT/E51pHrIBgqKaiuppvF0STb0lLMj/A/WlPqyG9eB2nW6RFteTc24wqg60xOVwyZBD9DWzN7+sK04hM+pT0g2qrY25dUzVEOZeTRpilCsaBHMLxOZRCxdRwAzVay3ir58JZAzOm2t/FTjoMvtaB2x1uxvC4BGbU6qmqw26654werVZFYrwK4hIUDcNmwZc1h/FyJey5Yp0GtbaUkjPQsG3W+CR6SrY7hqKLWxxJxeUyLpDiOGq4m9IRyqLUJF5PTZIU1VDG/uIkUhY6KZUfYqIEMD7H4DF7Yy4z1heSdVb6HLViJzusv0osS1d8ybs7NnECrL245zrm9cUOS34seeZ1B8QSH76JInI57iRH01lbe8mbD5Gsksqv2XyVLMv1Ldda7qdQuC4YuXS+mqjN9g9bLEtzM7mgze9fZKr4dWhYwLxZBcA6NHuSaHLITyEqMxNKnU2QpSndvON6VufbRtLQVWpSshcQsV36nFPa6BIpWHe8AFKvKOvZXtG9L5/xfSt36ON+23Vg32cwtnIHkc5S09q1pSb3G6/dplNro0wfXvWhvau7TTNl2+s/Q8BMVtpGdex9JSw97eD2pP3FQNV7hZzoNK+JFBHX1iaoWOOQZ966BiAWf4dAVARzUNNvkdYj7nv5UFYfK5Xeerd4M3LpUWfC6Rbl46EIew6BQAZx8FAgkEEoh0Agw8gHDx4EWgaBYEgi1hwCgQxiWiUQyCCUQyCQQSiHQCCDUA6BQIb/D+UFyKpZtvI8AAAAAElFTkSuQmCC;movable=0;resizable=0;rotatable=0;deletable=0;editable=0;connectable=0;" vertex="1" parent="1">
                    <mxGeometry x="400" y="380" width="199" height="179" as="geometry"/>
                </mxCell>
                <mxCell id="7" value="深拷贝后, 引用类型数据就会开辟新内存空间存储&lt;br&gt;不影响新旧数据" style="text;html=1;align=center;verticalAlign=middle;resizable=0;points=[];autosize=1;strokeColor=none;fillColor=none;movable=0;rotatable=0;deletable=0;editable=0;connectable=0;" vertex="1" parent="1">
                    <mxGeometry x="48.5" y="550" width="280" height="40" as="geometry"/>
                </mxCell>
            </root>
        </mxGraphModel>
    </diagram>
</mxfile>